<?xml version="1.0" encoding="UTF-8" standalone="no"?>
<!DOCTYPE svg PUBLIC "-//W3C//DTD SVG 1.1//EN" "http://www.w3.org/Graphics/SVG/1.1/DTD/svg11.dtd">
<svg width="100%" height="100%" viewBox="0 0 181 181" version="1.1" xmlns="http://www.w3.org/2000/svg" xmlns:xlink="http://www.w3.org/1999/xlink" xml:space="preserve" xmlns:serif="http://www.serif.com/" style="fill-rule:evenodd;clip-rule:evenodd;stroke-linecap:round;stroke-miterlimit:1;">
    <g id="icon-logo">
        <path d="M181,45.25L181,135.75C181,160.724 160.724,181 135.75,181L45.25,181C20.276,181 0,160.724 0,135.75L0,45.25C0,20.276 20.276,-0 45.25,-0L135.75,-0C160.724,-0 181,20.276 181,45.25Z" style="fill:rgb(255,196,2);"/>
        <g>
            <path d="M47.585,23.5L54.592,23.5L54.592,25.47C54.592,26.558 55.475,27.441 56.563,27.441L61.378,27.441C62.466,27.441 63.35,26.558 63.35,25.47L63.35,23.5L70.356,23.5L70.356,25.47C70.356,26.558 71.24,27.441 72.328,27.441L77.143,27.441C78.231,27.441 79.114,26.558 79.114,25.47L79.114,23.5L86.121,23.5L86.121,25.47C86.121,26.558 87.004,27.441 88.093,27.441L92.907,27.441C93.996,27.441 94.879,26.558 94.879,25.47L94.879,23.5L101.886,23.5L101.886,25.47C101.886,26.558 102.769,27.441 103.857,27.441L108.672,27.441C109.76,27.441 110.644,26.558 110.644,25.47L110.644,23.5L117.65,23.5L117.65,25.47C117.65,26.558 118.534,27.441 119.622,27.441L124.437,27.441C125.525,27.441 126.408,26.558 126.408,25.47L126.408,23.5L133.415,23.5L133.415,25.47C133.415,26.558 134.298,27.441 135.387,27.441L140.202,27.441C141.29,27.441 142.173,26.558 142.173,25.47L142.173,23.5L150.493,23.5L150.493,147.305C150.493,152.932 145.925,157.5 140.298,157.5L40.702,157.5C35.075,157.5 30.507,152.932 30.507,147.305L30.507,23.5L38.827,23.5L38.827,25.47C38.827,26.558 39.71,27.441 40.798,27.441L45.613,27.441C46.702,27.441 47.585,26.558 47.585,25.47L47.585,23.5Z" style="fill:rgb(246,246,244);"/>
        </g>
        <g>
            <path d="M50.377,54.592L131.828,54.592" style="fill:none;stroke:rgb(234,234,235);stroke-width:4.17px;"/>
            <path d="M50.377,81.45L131.828,81.45" style="fill:none;stroke:rgb(234,234,235);stroke-width:4.17px;"/>
            <path d="M49.172,108.308L130.623,108.308" style="fill:none;stroke:rgb(234,234,235);stroke-width:4.17px;"/>
            <path d="M49.172,135.167L130.623,135.167" style="fill:none;stroke:rgb(234,234,235);stroke-width:4.17px;"/>
        </g>
        <g>
            <g>
                <ellipse cx="55.671" cy="71.122" rx="14.169" ry="16.53" style="fill:rgb(36,36,36);"/>
                <circle cx="58.814" cy="69.351" r="3.542" style="fill:white;"/>
            </g>
            <g>
                <ellipse cx="125.329" cy="71.122" rx="14.169" ry="16.53" style="fill:rgb(36,36,36);"/>
                <circle cx="128.473" cy="69.351" r="3.542" style="fill:white;"/>
            </g>
            <g>
                <path d="M130.767,107.431C130.767,124.766 112.938,139.125 90.701,139.125C68.465,139.125 50.636,124.766 50.636,107.431C50.636,106.28 51.568,105.348 52.719,105.348L128.684,105.348C129.834,105.348 130.767,106.28 130.767,107.431Z" style="fill:rgb(80,71,39);"/>
                <clipPath id="_clip1">
                    <path d="M130.767,107.431C130.767,124.766 112.938,139.125 90.701,139.125C68.465,139.125 50.636,124.766 50.636,107.431C50.636,106.28 51.568,105.348 52.719,105.348L128.684,105.348C129.834,105.348 130.767,106.28 130.767,107.431Z"/>
                </clipPath>
                <g clip-path="url(#_clip1)">
                    <g>
                        <path d="M71.71,142.683C71.71,134.014 80.22,126.975 90.701,126.975C101.183,126.975 109.693,134.014 109.693,142.683L71.71,142.683Z" style="fill:rgb(249,164,139);"/>
                    </g>
                </g>
            </g>
        </g>
    </g>
</svg>
