<?xml version="1.0" encoding="UTF-8" standalone="no"?>
<!DOCTYPE svg PUBLIC "-//W3C//DTD SVG 1.1//EN" "http://www.w3.org/Graphics/SVG/1.1/DTD/svg11.dtd">
<svg width="100%" height="100%" viewBox="0 0 106 67" version="1.1" xmlns="http://www.w3.org/2000/svg" xmlns:xlink="http://www.w3.org/1999/xlink" xml:space="preserve" xmlns:serif="http://www.serif.com/" style="fill-rule:evenodd;clip-rule:evenodd;stroke-linejoin:round;stroke-miterlimit:2;">
    <g id="icon-eye">
        <path d="M52.844,66.698C84.241,66.698 105.677,41.551 105.677,33.69C105.677,25.78 84.241,0.682 52.844,0.682C21.936,0.682 0.012,25.78 0.012,33.69C0.012,41.551 21.936,66.698 52.844,66.698ZM52.844,59.862C28.186,59.862 7.581,38.963 7.581,33.69C7.581,29.442 28.186,7.518 52.844,7.518C77.454,7.518 98.059,29.442 98.059,33.69C98.059,38.963 77.454,59.862 52.844,59.862ZM52.844,55.125C64.807,55.125 74.329,45.36 74.329,33.69C74.329,21.678 64.807,12.254 52.844,12.254C40.833,12.254 31.262,21.678 31.311,33.69C31.36,45.36 40.833,55.125 52.844,55.125ZM52.844,40.965C48.792,40.965 45.471,37.645 45.471,33.69C45.471,29.686 48.792,26.366 52.844,26.366C56.897,26.366 60.169,29.686 60.169,33.69C60.169,37.645 56.897,40.965 52.844,40.965Z" style="fill-rule:nonzero;"/>
    </g>
</svg>
