<?xml version="1.0" encoding="UTF-8" standalone="no"?>
<!DOCTYPE svg PUBLIC "-//W3C//DTD SVG 1.1//EN" "http://www.w3.org/Graphics/SVG/1.1/DTD/svg11.dtd">
<svg width="100%" height="100%" viewBox="0 0 110 110" version="1.1" xmlns="http://www.w3.org/2000/svg" xmlns:xlink="http://www.w3.org/1999/xlink" xml:space="preserve" xmlns:serif="http://www.serif.com/" style="fill-rule:evenodd;clip-rule:evenodd;stroke-linejoin:round;stroke-miterlimit:2;">
    <g transform="matrix(1,0,0,1,-9885,-4396)">
        <g transform="matrix(1.94752,0,0,1.4297,3914.67,4125.68)">
            <g id="Medium-M" transform="matrix(0.513474,0,0,0.699446,3066.96,255.282)">
                <path d="M8.74,-31.8C8.74,-25.725 9.868,-20.047 12.125,-14.767C14.381,-9.487 17.5,-4.847 21.483,-0.848C25.465,3.151 30.097,6.272 35.377,8.515C40.657,10.758 46.322,11.879 52.371,11.879C58.392,11.879 64.041,10.758 69.318,8.515C74.596,6.272 79.234,3.151 83.233,-0.848C87.232,-4.847 90.351,-9.487 92.591,-14.767C94.831,-20.047 95.951,-25.725 95.951,-31.8C95.951,-33.235 95.498,-34.413 94.591,-35.334C93.684,-36.254 92.511,-36.714 91.072,-36.714C89.66,-36.714 88.53,-36.254 87.683,-35.334C86.835,-34.413 86.411,-33.235 86.411,-31.8C86.411,-27.066 85.531,-22.635 83.769,-18.507C82.008,-14.379 79.57,-10.751 76.456,-7.623C73.341,-4.496 69.727,-2.058 65.612,-0.31C61.497,1.438 57.083,2.312 52.371,2.312C47.631,2.312 43.203,1.438 39.088,-0.31C34.974,-2.058 31.361,-4.496 28.249,-7.623C25.137,-10.751 22.703,-14.379 20.944,-18.507C19.186,-22.635 18.307,-27.066 18.307,-31.8C18.307,-36.548 19.18,-40.987 20.927,-45.116C22.673,-49.246 25.092,-52.868 28.183,-55.982C31.274,-59.097 34.87,-61.533 38.97,-63.291C43.07,-65.049 47.487,-65.929 52.221,-65.929C53.819,-65.929 55.355,-65.86 56.829,-65.724C58.304,-65.588 59.663,-65.386 60.908,-65.119L47.601,-51.958C47.184,-51.509 46.856,-51.016 46.617,-50.48C46.377,-49.943 46.258,-49.353 46.258,-48.709C46.258,-47.386 46.711,-46.272 47.618,-45.368C48.525,-44.464 49.627,-44.012 50.924,-44.012C52.316,-44.012 53.426,-44.453 54.256,-45.337L74.313,-65.543C74.818,-66.048 75.19,-66.593 75.429,-67.178C75.668,-67.763 75.788,-68.391 75.788,-69.061C75.788,-70.397 75.296,-71.567 74.313,-72.572L54.256,-92.938C53.394,-93.865 52.283,-94.329 50.924,-94.329C49.601,-94.329 48.492,-93.867 47.598,-92.944C46.705,-92.021 46.258,-90.882 46.258,-89.526C46.258,-88.908 46.371,-88.325 46.597,-87.775C46.822,-87.225 47.144,-86.725 47.561,-86.276L59.371,-74.621C58.289,-74.834 57.146,-75.003 55.941,-75.126C54.735,-75.249 53.496,-75.311 52.221,-75.311C46.178,-75.311 40.526,-74.187 35.263,-71.94C30,-69.692 25.385,-66.583 21.417,-62.612C17.449,-58.641 14.344,-54.019 12.102,-48.748C9.861,-43.477 8.74,-37.827 8.74,-31.8Z" style="fill-rule:nonzero;"/>
            </g>
        </g>
    </g>
</svg>
