<?xml version="1.0" encoding="UTF-8" standalone="no"?>
<!DOCTYPE svg PUBLIC "-//W3C//DTD SVG 1.1//EN" "http://www.w3.org/Graphics/SVG/1.1/DTD/svg11.dtd">
<svg width="100%" height="100%" viewBox="0 0 70 84" version="1.1" xmlns="http://www.w3.org/2000/svg" xmlns:xlink="http://www.w3.org/1999/xlink" xml:space="preserve" xmlns:serif="http://www.serif.com/" style="fill-rule:evenodd;clip-rule:evenodd;stroke-linejoin:round;stroke-miterlimit:2;">
    <g id="icon-download">
        <path d="M12.947,83.469L56.746,83.469C65.095,83.469 69.197,79.367 69.197,71.164L69.197,33.615C69.197,25.412 65.095,21.31 56.746,21.31L46.248,21.31L46.248,28.391L56.648,28.391C60.115,28.391 62.165,30.295 62.165,33.957L62.165,70.822C62.165,74.533 60.115,76.389 56.648,76.389L13.044,76.389C9.529,76.389 7.527,74.533 7.527,70.822L7.527,33.957C7.527,30.295 9.529,28.391 13.044,28.391L23.445,28.391L23.445,21.31L12.947,21.31C4.646,21.31 0.496,25.412 0.496,33.615L0.496,71.164C0.496,79.367 4.646,83.469 12.947,83.469Z" style="fill-rule:nonzero;"/>
        <path d="M34.822,57.981C35.749,57.981 36.482,57.688 37.361,56.809L49.958,44.748C50.642,44.113 51.033,43.381 51.033,42.453C51.033,40.647 49.665,39.377 47.81,39.377C46.98,39.377 46.101,39.719 45.466,40.451L40.095,46.262L38.044,48.459L38.337,42.648L38.337,3.586C38.337,1.731 36.726,0.168 34.822,0.168C32.966,0.168 31.355,1.731 31.355,3.586L31.355,42.648L31.648,48.459L29.597,46.262L24.226,40.451C23.591,39.719 22.664,39.377 21.833,39.377C19.978,39.377 18.66,40.647 18.66,42.453C18.66,43.381 19.05,44.113 19.685,44.748L32.283,56.809C33.21,57.688 33.943,57.981 34.822,57.981Z" style="fill-rule:nonzero;"/>
    </g>
</svg>
